<svg xmlns="http://www.w3.org/2000/svg" xmlns:xlink="http://www.w3.org/1999/xlink" width="500" zoomAndPan="magnify" viewBox="0 0 375 374.999991" height="500" preserveAspectRatio="xMidYMid meet" version="1.0"><defs><g/><clipPath id="98cf064b6e"><path d="M 31.75 150.6875 L 343.75 150.6875 L 343.75 217.4375 L 31.75 217.4375 Z M 31.75 150.6875 " clip-rule="nonzero"/></clipPath></defs><g clip-path="url(#98cf064b6e)"><path fill="#ffdcba" d="M 288.050781 162.570312 C 292.675781 162.339844 297.277344 161.984375 301.890625 161.703125 C 311.140625 161.191406 320.296875 160.347656 329.496094 159.640625 C 329.046875 162.003906 328.625 164.457031 329.953125 166.488281 C 329.953125 166.488281 331.378906 166.304688 333.140625 165.964844 C 334.90625 165.644531 337.023438 165.261719 338.4375 165.003906 C 350.390625 168.492188 348.742188 176.691406 343.496094 183.292969 C 342.132812 184.6875 340.59375 186.261719 338.839844 187.867188 C 337.367188 187.902344 335.890625 187.933594 334.429688 187.964844 C 327.785156 188.148438 321.234375 188.46875 314.628906 189.023438 C 308.0625 189.421875 301.46875 189.957031 294.789062 190.550781 C 281.453125 191.589844 277.503906 192.761719 263.085938 192.941406 C 242.859375 192.625 283.171875 191.367188 263.085938 192.941406 C 286.9375 192.105469 248.164062 194.65625 272.425781 193.332031 C 278.5 193.027344 274.832031 192.722656 280.867188 192.421875 C 286.917969 192.203125 292.9375 191.980469 298.925781 191.765625 C 304.933594 191.546875 310.882812 191.523438 316.84375 191.429688 C 322.824219 191.289062 328.734375 191.332031 334.667969 191.390625 C 330.195312 194.75 324.777344 197.597656 318.207031 198.550781 C 302.542969 199.578125 287.089844 200.589844 271.773438 201.59375 C 271.703125 200.46875 259.800781 202.515625 249.273438 203.191406 C 238.753906 203.792969 228.386719 201.722656 217.953125 201.964844 C 197.078125 202.519531 155.515625 208.988281 155.226562 209.730469 C 155.121094 209.742188 155.019531 209.75 154.921875 209.757812 C 155.019531 209.75 155.121094 209.742188 155.226562 209.730469 C 154.96875 210.386719 155.164062 210.863281 157.84375 210.675781 C 155.164062 210.863281 154.96875 210.386719 155.226562 209.730469 C 197.558594 205.652344 227.46875 203.71875 270.03125 201.722656 C 237.019531 203.929688 214.484375 206.53125 182.015625 209.226562 C 149.554688 211.90625 116.90625 214.617188 83.234375 216.683594 C 80.371094 216.859375 74.625 217.207031 71.753906 217.382812 C 60.148438 214.71875 48.617188 214.273438 37.160156 214.929688 C 39.828125 209.175781 27.960938 198.667969 50.984375 199.578125 C 50.945312 198.460938 50.867188 196.226562 50.824219 195.109375 C 39.234375 192.984375 31.257812 188.113281 28.714844 183.101562 C 27.542969 180.605469 27.691406 178.011719 29.789062 175.703125 C 31.972656 173.382812 35.613281 171.359375 41.320312 169.910156 C 66.925781 163.964844 101.433594 166.351562 132.804688 161.996094 C 155.648438 159.351562 178.460938 156.597656 201.402344 157.054688 C 232.980469 157.96875 257.429688 153.941406 288.921875 154.945312 C 294.628906 154.851562 302.363281 153.339844 309.414062 152.21875 C 316.433594 151.023438 322.695312 150.0625 325.664062 151.347656 C 329.839844 152.367188 330.242188 154.707031 329.875 157.429688 C 320.582031 158.546875 311.339844 159.828125 302.015625 160.714844 C 297.363281 161.1875 292.734375 161.71875 288.089844 162.121094 C 283.441406 162.503906 278.808594 162.886719 274.183594 163.265625 " fill-opacity="1" fill-rule="nonzero"/></g><g fill="#222222" fill-opacity="1"><g transform="translate(63.785479, 200.618965)"><g><path d="M 27.492188 -22.507812 C 35.550781 -26.023438 43.542969 -35.484375 42.390625 -44.691406 C 42.070312 -47.761719 39.832031 -51.46875 36.253906 -50.894531 C 34.335938 -50.574219 32.480469 -48.527344 31.136719 -47.25 C 29.410156 -45.523438 27.75 -43.667969 26.214844 -41.75 C 23.015625 -37.851562 20.078125 -33.632812 17.390625 -29.347656 C 16.175781 -27.300781 15.023438 -25.191406 13.9375 -23.082031 C 13.300781 -21.929688 12.722656 -20.78125 12.210938 -19.566406 C 11.765625 -18.605469 10.871094 -17.328125 10.742188 -16.238281 C 10.933594 -17.390625 12.148438 -19.246094 12.722656 -20.394531 C 13.492188 -21.996094 14.320312 -23.59375 15.152344 -25.191406 C 16.945312 -28.324219 18.863281 -31.394531 20.90625 -34.335938 C 15.472656 -26.34375 10.871094 -17.519531 8.121094 -8.183594 L 8.375 -10.613281 C 8.375 -10.804688 8.695312 -13.875 8.632812 -13.808594 C 8.503906 -13.683594 8.441406 -13.554688 8.375 -13.425781 C 8.695312 -15.472656 9.527344 -17.773438 10.101562 -19.820312 C 10.804688 -22.378906 11.316406 -24.9375 12.019531 -27.492188 C 12.789062 -30.179688 13.746094 -32.734375 14.832031 -35.292969 C 15.152344 -35.867188 18.160156 -42.390625 18.476562 -42.582031 C 18.03125 -42.390625 15.410156 -36.957031 14.769531 -35.613281 C 16.304688 -39.195312 18.09375 -42.644531 20.394531 -45.777344 C 20.203125 -45.460938 19.949219 -45.011719 20.011719 -45.011719 C 20.203125 -44.949219 21.867188 -47.121094 21.738281 -47.1875 C 21.609375 -47.1875 21.484375 -47.121094 21.417969 -47.058594 C 21.800781 -47.503906 22.1875 -47.632812 22.1875 -48.402344 C 22.121094 -49.421875 21.164062 -50.832031 20.203125 -51.214844 C 18.09375 -51.980469 16.6875 -49.230469 15.535156 -48.335938 C 13.683594 -46.800781 12.851562 -44.691406 11.699219 -42.582031 C 11.445312 -42.007812 8.375 -35.230469 8.566406 -35.164062 L 8.121094 -33.757812 C 8.054688 -33.824219 8.3125 -34.207031 8.183594 -34.269531 C 7.542969 -34.398438 5.945312 -28.707031 5.816406 -28.261719 C 5.625 -26.980469 5.308594 -25.832031 4.921875 -24.550781 C 4.730469 -23.914062 4.476562 -23.210938 4.347656 -22.507812 C 4.285156 -22.441406 4.09375 -20.78125 4.347656 -21.417969 C 4.347656 -21.226562 4.285156 -21.097656 4.285156 -20.972656 C 4.21875 -21.035156 4.21875 -21.097656 4.21875 -21.164062 C 4.027344 -21.097656 3.835938 -19.117188 3.773438 -18.863281 C 3.390625 -17.839844 3.003906 -16.878906 2.75 -15.792969 C 2.109375 -13.171875 1.980469 -10.421875 1.855469 -7.738281 C 1.789062 -5.5 1.277344 -2.429688 2.238281 -0.320312 C 3.070312 1.726562 5.691406 3.070312 7.480469 1.152344 L 7.671875 1.535156 C 8.121094 -1.023438 8.632812 -3.515625 9.398438 -6.011719 C 10.933594 -10.871094 13.042969 -15.34375 15.023438 -20.011719 C 15.664062 -21.546875 16.878906 -22.761719 17.773438 -24.230469 C 19.246094 -26.726562 20.714844 -29.15625 22.3125 -31.585938 C 25.0625 -35.867188 28.195312 -40.152344 31.839844 -43.734375 C 32.542969 -44.4375 33.886719 -46.097656 35.039062 -45.777344 C 36.765625 -45.332031 35.933594 -41.429688 35.101562 -39.511719 L 35.039062 -39.320312 L 34.972656 -39.257812 L 34.972656 -39.195312 C 34.460938 -37.785156 33.757812 -36.445312 33.054688 -35.101562 C 33.054688 -35.164062 33.566406 -36.316406 33.566406 -36.316406 C 33.246094 -36.378906 31.203125 -32.863281 30.882812 -32.417969 C 29.601562 -30.691406 28.261719 -29.027344 26.726562 -27.558594 C 25.320312 -26.152344 23.785156 -24.9375 22.1875 -23.785156 C 21.226562 -23.210938 19.882812 -22.890625 19.054688 -22.25 C 17.199219 -20.78125 21.867188 -17.773438 23.527344 -18.222656 C 24.9375 -18.605469 25.957031 -19.4375 27.558594 -19.246094 C 28.324219 -19.117188 29.027344 -18.863281 29.601562 -18.285156 C 29.667969 -18.285156 30.433594 -17.390625 30.625 -17.070312 L 30.625 -17.261719 C 30.945312 -16.558594 31.074219 -15.855469 31.136719 -15.152344 C 31.074219 -15.472656 30.816406 -15.921875 30.753906 -16.367188 C 30.753906 -15.664062 31.007812 -14.449219 31.136719 -14.386719 C 31.519531 -14.003906 30.753906 -11.445312 30.371094 -10.613281 C 29.601562 -8.953125 28.453125 -7.417969 27.238281 -6.011719 C 24.617188 -3.070312 21.417969 -0.703125 18.03125 1.34375 C 14.449219 3.515625 10.550781 5.371094 6.457031 6.585938 C 4.730469 7.160156 2.941406 7.417969 1.085938 7.738281 C 0.320312 7.863281 -0.382812 7.800781 0.253906 8.566406 C 0.894531 9.460938 3.644531 9.71875 4.667969 9.847656 C 6.585938 10.230469 8.503906 10.101562 10.484375 9.71875 C 13.683594 9.078125 17.007812 7.929688 19.949219 6.585938 C 26.980469 3.453125 33.949219 -1.855469 36.378906 -9.398438 C 37.082031 -11.574219 37.53125 -14.128906 37.082031 -16.367188 C 36.125 -20.90625 31.777344 -22.890625 27.492188 -22.507812 Z M 30.304688 -6.523438 C 29.859375 -5.308594 28.773438 -4.027344 27.8125 -3.195312 C 26.917969 -2.429688 25.957031 -2.046875 25.191406 -1.46875 L 27.367188 -3.773438 C 28.964844 -5.625 30.179688 -7.351562 31.265625 -9.589844 L 31.585938 -10.359375 C 31.457031 -9.269531 30.753906 -7.542969 30.304688 -6.523438 Z M 38.234375 -33.757812 C 38.875 -34.847656 39.832031 -36.253906 40.472656 -37.660156 C 39.832031 -35.550781 39.066406 -33.824219 37.46875 -32.03125 C 36.890625 -31.457031 36.378906 -30.816406 35.804688 -30.179688 C 36.699219 -31.328125 37.53125 -32.480469 38.234375 -33.757812 Z M 4.601562 -13.9375 C 4.21875 -13.042969 4.027344 -11.636719 4.09375 -10.675781 C 3.964844 -12.085938 4.15625 -14.003906 4.539062 -15.34375 C 4.730469 -15.921875 5.179688 -16.625 5.5 -17.261719 C 5.5 -16.945312 5.5 -16.558594 5.433594 -16.175781 C 5.308594 -15.34375 4.921875 -14.640625 4.601562 -13.9375 Z M 13.617188 -32.800781 C 13.617188 -32.929688 13.683594 -33.054688 13.746094 -33.183594 Z M 25.894531 -41.046875 L 25.445312 -40.601562 Z M 14.640625 -35.359375 C 14.640625 -35.421875 14.707031 -35.550781 14.769531 -35.613281 Z M 14.640625 -35.359375 "/></g></g></g><g fill="#222222" fill-opacity="1"><g transform="translate(104.897243, 200.618965)"><g><path d="M 25.574219 -16.304688 C 24.679688 -15.34375 24.105469 -13.746094 23.402344 -12.59375 C 22.3125 -10.742188 21.226562 -8.953125 20.078125 -7.160156 C 17.902344 -3.707031 15.730469 -0.191406 13.105469 2.941406 C 12.019531 4.285156 9.71875 7.542969 7.542969 7.289062 C 5.945312 7.03125 5.945312 4.285156 5.945312 3.070312 C 5.945312 2.046875 6.011719 1.023438 6.136719 0.0625 C 6.203125 -0.511719 6.714844 -2.429688 6.394531 -2.941406 L 5.882812 -1.023438 C 5.945312 -1.789062 6.074219 -2.621094 6.265625 -3.390625 C 6.203125 -3.515625 6.777344 -5.308594 6.90625 -5.882812 C 7.226562 -7.160156 7.542969 -8.441406 7.929688 -9.71875 C 8.246094 -10.996094 8.566406 -12.210938 8.953125 -13.425781 C 9.269531 -14.578125 9.71875 -15.152344 10.421875 -16.046875 C 13.300781 -19.628906 15.921875 -23.527344 18.351562 -27.429688 C 19.246094 -28.898438 19.820312 -30.179688 20.90625 -31.394531 C 22.507812 -33.054688 23.59375 -35.550781 24.617188 -37.59375 C 26.34375 -40.921875 28.644531 -45.523438 28.261719 -49.421875 L 28.261719 -49.742188 L 28.195312 -49.808594 C 27.8125 -52.300781 25.511719 -55.242188 22.699219 -54.347656 C 21.226562 -53.898438 20.140625 -52.363281 19.246094 -51.277344 L 17.773438 -49.296875 C 17.453125 -48.914062 17.007812 -47.953125 16.6875 -47.441406 L 16.75 -47.503906 L 14.707031 -43.988281 L 15.21875 -45.074219 C 14.898438 -45.140625 13.492188 -42.390625 13.300781 -42.070312 C 12.59375 -40.855469 11.957031 -39.640625 11.382812 -38.425781 C 10.101562 -35.867188 8.824219 -33.246094 7.992188 -30.5 C 7.097656 -27.75 6.074219 -25.0625 5.113281 -22.3125 C 4.601562 -20.84375 4.09375 -19.308594 3.644531 -17.839844 C 3.261719 -16.625 2.367188 -14.640625 2.558594 -13.363281 L 2.75 -13.363281 C 2.558594 -12.914062 2.429688 -12.46875 2.300781 -12.019531 C 2.367188 -12.402344 2.367188 -12.851562 2.429688 -12.980469 C 2.109375 -12.53125 2.175781 -10.996094 2.109375 -10.871094 C 1.277344 -7.417969 0.320312 -3.964844 0.0625 -0.382812 C -0.128906 3.003906 -0.128906 7.480469 2.558594 9.972656 C 5.5625 12.722656 9.015625 10.871094 11.507812 8.503906 C 14.449219 5.625 16.945312 2.238281 19.246094 -1.085938 C 21.355469 -4.15625 23.015625 -7.417969 24.9375 -10.484375 C 25.703125 -11.765625 26.535156 -13.042969 26.917969 -14.449219 C 27.171875 -15.472656 27.046875 -17.839844 25.574219 -16.304688 Z M 17.582031 -39.195312 C 18.863281 -42.261719 20.140625 -45.394531 21.929688 -48.273438 C 22.378906 -48.976562 25.253906 -52.8125 25.128906 -49.421875 L 25.128906 -49.359375 C 25 -45.777344 22.699219 -42.007812 21.164062 -38.9375 L 18.476562 -33.949219 C 17.582031 -32.417969 16.046875 -30.5 15.535156 -28.835938 C 15.921875 -29.859375 17.070312 -31.328125 17.648438 -32.289062 C 18.605469 -33.886719 19.4375 -35.484375 20.332031 -37.082031 C 21.800781 -39.898438 23.402344 -42.839844 24.488281 -45.90625 C 21.609375 -37.339844 16.238281 -29.347656 11.507812 -21.738281 C 13.363281 -27.367188 15.21875 -33.503906 17.582031 -39.195312 Z M 15.535156 -43.667969 C 16.175781 -44.882812 17.328125 -45.90625 17.964844 -47.058594 C 16.625 -44.371094 14.960938 -41.941406 13.554688 -39.386719 C 13.554688 -39.449219 13.554688 -39.578125 13.617188 -39.640625 C 14.195312 -41.046875 14.832031 -42.328125 15.535156 -43.667969 Z M 3.453125 -10.613281 C 3.390625 -10.484375 3.390625 -10.421875 3.390625 -10.421875 C 2.621094 -8.632812 2.558594 -6.203125 2.175781 -4.285156 C 2.109375 -3.835938 1.980469 -3.453125 1.980469 -3.003906 L 1.980469 -3.195312 L 1.789062 -1.152344 C 1.917969 -3.453125 2.175781 -5.816406 2.621094 -8.054688 L 2.621094 -7.992188 C 2.8125 -9.460938 3.132812 -10.804688 3.390625 -10.804688 C 3.515625 -10.871094 3.515625 -10.675781 3.453125 -10.613281 Z M 3.453125 -10.613281 "/></g></g></g><g fill="#222222" fill-opacity="1"><g transform="translate(127.531092, 200.618965)"><g><path d="M 29.410156 -15.921875 C 29.410156 -15.921875 29.476562 -15.855469 29.410156 -15.984375 C 29.089844 -16.433594 28.644531 -16.113281 28.195312 -15.984375 C 26.34375 -15.601562 24.425781 -15.152344 22.507812 -14.832031 C 23.210938 -17.136719 23.914062 -19.566406 24.167969 -21.929688 C 24.296875 -22.824219 24.359375 -23.785156 24.167969 -24.679688 C 24.039062 -25.253906 23.847656 -25.832031 23.527344 -26.34375 C 23.527344 -26.34375 22.761719 -27.300781 22.953125 -26.789062 L 22.890625 -26.855469 L 22.632812 -27.367188 L 22.890625 -27.109375 C 22.953125 -27.492188 21.867188 -28.195312 21.867188 -28.195312 C 20.269531 -29.792969 18.09375 -31.007812 15.921875 -29.792969 C 14.578125 -29.027344 13.492188 -27.75 12.59375 -26.46875 C 12.277344 -26.023438 11.957031 -25.511719 11.699219 -25 C 11.445312 -24.488281 11.0625 -22.824219 10.675781 -22.570312 C 10.359375 -22.3125 9.398438 -22.25 8.953125 -21.996094 C 8.3125 -21.738281 7.738281 -21.417969 7.226562 -21.035156 C 6.011719 -20.269531 5.050781 -19.179688 4.15625 -18.09375 C 2.621094 -16.046875 1.855469 -13.746094 0.765625 -11.699219 C -1.277344 -7.800781 0.960938 -2.683594 4.730469 -0.832031 C 5.945312 -0.253906 7.351562 0 8.632812 -0.128906 C 9.972656 -0.320312 11.253906 -1.023438 12.277344 -1.789062 C 13.234375 -2.492188 15.34375 -3.773438 15.730469 -4.859375 C 15.730469 -4.921875 15.601562 -4.859375 15.410156 -4.667969 L 17.261719 -6.839844 C 17.328125 -6.777344 16.816406 -6.136719 16.816406 -6.136719 C 17.261719 -5.945312 19.566406 -9.335938 19.820312 -9.589844 C 20.269531 -10.359375 20.714844 -11.1875 21.226562 -11.957031 C 21.675781 -12.53125 21.546875 -12.46875 22.1875 -12.722656 C 22.121094 -12.660156 22.953125 -12.914062 23.082031 -12.914062 C 23.785156 -13.042969 31.265625 -13.554688 29.410156 -15.921875 Z M 7.289062 -3.003906 L 7.226562 -3.003906 C 1.917969 -2.238281 8.054688 -13.492188 8.183594 -14.128906 L 7.800781 -13.554688 C 8.757812 -15.472656 9.65625 -17.007812 10.101562 -17.519531 C 10.804688 -14.320312 14.257812 -13.105469 17.070312 -12.722656 C 15.21875 -9.015625 11.765625 -3.835938 7.289062 -3.003906 Z M 19.882812 -20.714844 C 19.4375 -18.925781 19.054688 -16.558594 18.09375 -14.960938 C 17.773438 -14.320312 17.964844 -14.515625 17.328125 -14.386719 C 16.945312 -14.257812 16.113281 -14.386719 15.730469 -14.449219 C 15.023438 -14.515625 14.195312 -14.640625 13.683594 -15.089844 C 12.789062 -15.855469 12.914062 -17.070312 13.042969 -18.160156 C 13.171875 -19.246094 13.492188 -20.269531 13.875 -21.292969 C 14.066406 -21.675781 15.28125 -23.722656 15.089844 -24.105469 C 15.023438 -24.296875 14.320312 -23.144531 14.257812 -23.082031 C 14.640625 -23.785156 15.023438 -24.167969 15.34375 -24.617188 C 15.28125 -24.617188 15.34375 -24.679688 15.410156 -24.808594 L 15.410156 -24.742188 L 15.472656 -24.871094 C 15.472656 -24.871094 15.472656 -24.9375 15.535156 -24.9375 C 16.496094 -26.214844 18.863281 -29.089844 20.140625 -27.109375 C 21.097656 -25.445312 20.203125 -22.3125 19.882812 -20.714844 Z M 15.472656 -24.871094 L 15.535156 -24.9375 C 15.535156 -24.871094 15.472656 -24.871094 15.472656 -24.871094 Z M 15.472656 -24.871094 "/></g></g></g><g fill="#222222" fill-opacity="1"><g transform="translate(152.530629, 200.618965)"><g><path d="M 32.609375 -15.34375 C 32.351562 -17.199219 30.5 -15.34375 29.921875 -14.832031 C 28.835938 -14.003906 27.683594 -13.300781 26.597656 -12.46875 C 25.128906 -11.445312 23.722656 -10.292969 22.3125 -9.144531 C 21.738281 -8.695312 18.222656 -5.433594 17.902344 -5.625 C 18.925781 -8.824219 20.714844 -12.019531 22.441406 -15.023438 C 24.039062 -17.710938 20.78125 -20.011719 18.160156 -18.863281 C 17.390625 -18.542969 16.558594 -17.136719 16.046875 -16.433594 C 14.832031 -14.707031 13.683594 -12.851562 12.46875 -11.125 L 10.742188 -8.503906 C 10.550781 -8.246094 9.335938 -6.457031 9.527344 -6.457031 C 9.589844 -6.457031 9.65625 -6.523438 9.71875 -6.585938 C 8.441406 -4.859375 6.585938 -2.683594 4.921875 -1.46875 C 2.621094 0.320312 3.964844 -5.050781 4.285156 -5.945312 C 5.242188 -8.824219 6.839844 -11.574219 8.566406 -14.066406 C 8.824219 -14.449219 12.339844 -18.925781 13.492188 -20.011719 C 12.339844 -19.054688 8.886719 -14.769531 8.3125 -14.066406 C 10.359375 -17.007812 13.617188 -21.675781 17.453125 -22.3125 L 16.625 -21.996094 C 17.390625 -22.121094 19.117188 -22.058594 19.117188 -22.058594 L 18.925781 -22.25 C 19.246094 -22.058594 19.4375 -21.800781 19.820312 -21.800781 C 21.417969 -21.867188 21.035156 -24.425781 20.332031 -25.191406 C 19.375 -26.46875 17.070312 -26.980469 15.535156 -26.597656 C 15.089844 -26.46875 14.898438 -26.214844 14.386719 -26.152344 C 13.808594 -26.023438 13.363281 -26.152344 12.660156 -25.765625 C 11.382812 -25.128906 10.292969 -24.230469 9.269531 -23.210938 C 8.632812 -22.632812 2.492188 -16.046875 2.941406 -15.792969 C 3.070312 -15.792969 3.195312 -15.921875 3.261719 -15.984375 L 2.175781 -14.386719 C 2.109375 -14.449219 2.429688 -14.898438 2.367188 -14.898438 C 2.109375 -15.023438 0.832031 -12.914062 0.765625 -12.722656 C 0.128906 -11.699219 -0.382812 -10.550781 -0.574219 -9.335938 C -0.832031 -7.992188 -0.894531 -6.523438 -0.894531 -5.179688 C -0.894531 -4.285156 -0.832031 -3.390625 -0.574219 -2.558594 C -0.511719 -2.429688 0.253906 -0.960938 0.128906 -1.597656 L 0.320312 -1.152344 C 0.253906 -1.152344 0.191406 -1.214844 0.128906 -1.277344 C -0.128906 -0.832031 2.300781 1.34375 2.75 1.535156 C 3.707031 1.980469 4.601562 1.726562 5.5625 1.152344 C 7.671875 -0.128906 9.144531 -2.558594 10.613281 -4.601562 C 12.210938 -6.777344 14.003906 -9.015625 15.34375 -11.445312 L 13.9375 -6.457031 C 13.363281 -4.601562 13.042969 -1.855469 11.890625 -0.382812 C 10.675781 1.085938 8.886719 2.367188 7.542969 3.644531 C 6.136719 4.921875 4.730469 6.203125 3.453125 7.671875 C 1.597656 9.78125 -0.128906 12.085938 -1.726562 14.386719 C -3.582031 17.070312 -4.859375 19.949219 -3.582031 23.082031 C -2.429688 25.832031 0.191406 28.386719 3.390625 27.621094 C 6.136719 26.917969 7.160156 24.617188 8.375 22.441406 C 12.210938 15.792969 14.128906 8.121094 16.304688 0.765625 C 16.625 -0.320312 16.816406 -1.40625 17.582031 -2.238281 C 18.351562 -3.003906 19.308594 -3.707031 20.203125 -4.410156 C 21.996094 -6.011719 23.847656 -7.480469 25.765625 -9.015625 L 30.945312 -12.980469 C 31.777344 -13.617188 32.863281 -14.128906 32.609375 -15.34375 Z M 9.972656 6.394531 C 9.972656 6.328125 9.65625 7.226562 9.71875 7.097656 C 8.375 10.996094 7.097656 14.898438 5.308594 18.605469 C 4.410156 20.460938 0.191406 28.132812 -1.34375 22.507812 C -2.367188 18.925781 1.085938 14.832031 3.070312 12.210938 C 5.5 9.078125 7.992188 6.265625 10.871094 3.582031 C 10.613281 4.539062 10.292969 5.5 9.972656 6.394531 Z M 9.71875 10.871094 C 9.335938 12.277344 8.886719 13.683594 8.3125 15.023438 C 7.738281 16.113281 6.96875 17.070312 6.394531 18.09375 C 7.542969 15.601562 8.757812 13.234375 9.71875 10.675781 Z M 6.523438 -12.789062 C 6.136719 -12.085938 5.5625 -11.445312 5.050781 -10.742188 C 5.5625 -11.890625 6.074219 -12.914062 7.03125 -13.9375 C 7.226562 -14.128906 7.542969 -14.449219 7.738281 -14.769531 Z M 6.457031 -11.125 L 5.882812 -10.292969 C 6.265625 -10.996094 6.714844 -11.699219 7.226562 -12.402344 Z M 6.457031 -11.125 "/></g></g></g><g fill="#222222" fill-opacity="1"><g transform="translate(180.471285, 200.618965)"><g><path d="M 32.609375 -15.34375 C 32.351562 -17.199219 30.5 -15.34375 29.921875 -14.832031 C 28.835938 -14.003906 27.683594 -13.300781 26.597656 -12.46875 C 25.128906 -11.445312 23.722656 -10.292969 22.3125 -9.144531 C 21.738281 -8.695312 18.222656 -5.433594 17.902344 -5.625 C 18.925781 -8.824219 20.714844 -12.019531 22.441406 -15.023438 C 24.039062 -17.710938 20.78125 -20.011719 18.160156 -18.863281 C 17.390625 -18.542969 16.558594 -17.136719 16.046875 -16.433594 C 14.832031 -14.707031 13.683594 -12.851562 12.46875 -11.125 L 10.742188 -8.503906 C 10.550781 -8.246094 9.335938 -6.457031 9.527344 -6.457031 C 9.589844 -6.457031 9.65625 -6.523438 9.71875 -6.585938 C 8.441406 -4.859375 6.585938 -2.683594 4.921875 -1.46875 C 2.621094 0.320312 3.964844 -5.050781 4.285156 -5.945312 C 5.242188 -8.824219 6.839844 -11.574219 8.566406 -14.066406 C 8.824219 -14.449219 12.339844 -18.925781 13.492188 -20.011719 C 12.339844 -19.054688 8.886719 -14.769531 8.3125 -14.066406 C 10.359375 -17.007812 13.617188 -21.675781 17.453125 -22.3125 L 16.625 -21.996094 C 17.390625 -22.121094 19.117188 -22.058594 19.117188 -22.058594 L 18.925781 -22.25 C 19.246094 -22.058594 19.4375 -21.800781 19.820312 -21.800781 C 21.417969 -21.867188 21.035156 -24.425781 20.332031 -25.191406 C 19.375 -26.46875 17.070312 -26.980469 15.535156 -26.597656 C 15.089844 -26.46875 14.898438 -26.214844 14.386719 -26.152344 C 13.808594 -26.023438 13.363281 -26.152344 12.660156 -25.765625 C 11.382812 -25.128906 10.292969 -24.230469 9.269531 -23.210938 C 8.632812 -22.632812 2.492188 -16.046875 2.941406 -15.792969 C 3.070312 -15.792969 3.195312 -15.921875 3.261719 -15.984375 L 2.175781 -14.386719 C 2.109375 -14.449219 2.429688 -14.898438 2.367188 -14.898438 C 2.109375 -15.023438 0.832031 -12.914062 0.765625 -12.722656 C 0.128906 -11.699219 -0.382812 -10.550781 -0.574219 -9.335938 C -0.832031 -7.992188 -0.894531 -6.523438 -0.894531 -5.179688 C -0.894531 -4.285156 -0.832031 -3.390625 -0.574219 -2.558594 C -0.511719 -2.429688 0.253906 -0.960938 0.128906 -1.597656 L 0.320312 -1.152344 C 0.253906 -1.152344 0.191406 -1.214844 0.128906 -1.277344 C -0.128906 -0.832031 2.300781 1.34375 2.75 1.535156 C 3.707031 1.980469 4.601562 1.726562 5.5625 1.152344 C 7.671875 -0.128906 9.144531 -2.558594 10.613281 -4.601562 C 12.210938 -6.777344 14.003906 -9.015625 15.34375 -11.445312 L 13.9375 -6.457031 C 13.363281 -4.601562 13.042969 -1.855469 11.890625 -0.382812 C 10.675781 1.085938 8.886719 2.367188 7.542969 3.644531 C 6.136719 4.921875 4.730469 6.203125 3.453125 7.671875 C 1.597656 9.78125 -0.128906 12.085938 -1.726562 14.386719 C -3.582031 17.070312 -4.859375 19.949219 -3.582031 23.082031 C -2.429688 25.832031 0.191406 28.386719 3.390625 27.621094 C 6.136719 26.917969 7.160156 24.617188 8.375 22.441406 C 12.210938 15.792969 14.128906 8.121094 16.304688 0.765625 C 16.625 -0.320312 16.816406 -1.40625 17.582031 -2.238281 C 18.351562 -3.003906 19.308594 -3.707031 20.203125 -4.410156 C 21.996094 -6.011719 23.847656 -7.480469 25.765625 -9.015625 L 30.945312 -12.980469 C 31.777344 -13.617188 32.863281 -14.128906 32.609375 -15.34375 Z M 9.972656 6.394531 C 9.972656 6.328125 9.65625 7.226562 9.71875 7.097656 C 8.375 10.996094 7.097656 14.898438 5.308594 18.605469 C 4.410156 20.460938 0.191406 28.132812 -1.34375 22.507812 C -2.367188 18.925781 1.085938 14.832031 3.070312 12.210938 C 5.5 9.078125 7.992188 6.265625 10.871094 3.582031 C 10.613281 4.539062 10.292969 5.5 9.972656 6.394531 Z M 9.71875 10.871094 C 9.335938 12.277344 8.886719 13.683594 8.3125 15.023438 C 7.738281 16.113281 6.96875 17.070312 6.394531 18.09375 C 7.542969 15.601562 8.757812 13.234375 9.71875 10.675781 Z M 6.523438 -12.789062 C 6.136719 -12.085938 5.5625 -11.445312 5.050781 -10.742188 C 5.5625 -11.890625 6.074219 -12.914062 7.03125 -13.9375 C 7.226562 -14.128906 7.542969 -14.449219 7.738281 -14.769531 Z M 6.457031 -11.125 L 5.882812 -10.292969 C 6.265625 -10.996094 6.714844 -11.699219 7.226562 -12.402344 Z M 6.457031 -11.125 "/></g></g></g><g fill="#222222" fill-opacity="1"><g transform="translate(208.411941, 200.618965)"><g><path d="M 24.488281 -15.792969 C 24.488281 -15.730469 24.488281 -15.730469 24.425781 -15.792969 L 24.425781 -15.855469 C 23.402344 -17.582031 22.058594 -15.21875 21.484375 -14.386719 C 20.394531 -12.914062 19.375 -11.507812 18.222656 -10.167969 C 17.261719 -9.015625 16.238281 -7.863281 15.472656 -6.648438 C 15.472656 -6.523438 15.34375 -6.203125 15.34375 -6.203125 C 15.089844 -5.816406 14.707031 -5.5 14.386719 -5.113281 C 13.808594 -4.539062 13.234375 -3.898438 12.59375 -3.324219 C 11.636719 -2.429688 6.265625 2.621094 5.5625 -0.640625 C 5.179688 -2.238281 5.691406 -4.21875 6.011719 -5.753906 C 6.203125 -6.585938 6.394531 -7.351562 6.523438 -8.183594 C 6.648438 -8.824219 6.457031 -9.460938 6.777344 -10.101562 C 6.96875 -10.484375 7.03125 -10.421875 7.480469 -10.550781 L 8.566406 -10.933594 C 9.269531 -11.1875 9.972656 -11.445312 10.613281 -11.828125 C 11.574219 -12.402344 12.46875 -13.105469 13.300781 -13.808594 C 15.28125 -15.472656 17.390625 -17.453125 18.222656 -19.949219 C 18.667969 -21.355469 18.734375 -22.890625 17.839844 -24.105469 C 17.007812 -25.191406 15.601562 -25.765625 14.320312 -26.023438 C 10.871094 -26.660156 8.246094 -24.679688 6.265625 -22.058594 C 3.835938 -19.054688 2.109375 -15.34375 1.277344 -11.574219 C 0.832031 -9.71875 0.574219 -7.863281 0.253906 -5.945312 C -0.0625 -4.027344 -0.253906 -2.238281 0.765625 -0.449219 C 0.703125 -1.085938 0.574219 -1.664062 0.574219 -2.238281 C 0.574219 -2.558594 0.703125 -2.878906 0.703125 -3.132812 C 0.703125 -3.261719 0.574219 -3.644531 0.574219 -3.835938 C 0.574219 -4.410156 0.703125 -4.859375 0.832031 -5.433594 C 0.894531 -6.011719 0.832031 -6.585938 0.894531 -7.160156 C 0.960938 -7.800781 1.214844 -8.3125 1.46875 -8.886719 C 1.664062 -9.398438 1.726562 -9.847656 1.917969 -10.359375 C 2.109375 -10.804688 2.238281 -11.316406 2.429688 -11.828125 C 2.492188 -12.148438 2.8125 -12.53125 3.003906 -12.914062 C 2.8125 -12.339844 2.429688 -11.828125 2.300781 -11.316406 C 2.109375 -10.550781 2.238281 -9.71875 2.175781 -8.953125 C 2.046875 -8.121094 1.789062 -7.289062 1.664062 -6.394531 C 1.535156 -5.5625 1.152344 -4.796875 1.023438 -3.964844 C 0.894531 -3.195312 0.640625 -2.621094 0.703125 -1.855469 C 0.703125 -1.40625 0.765625 -0.960938 0.832031 -0.574219 C 0.894531 -0.0625 1.214844 0.253906 1.535156 0.640625 C 2.621094 1.917969 4.09375 2.941406 5.753906 3.390625 C 6.90625 3.707031 7.929688 3.644531 9.015625 3.070312 C 10.550781 2.238281 11.890625 0.960938 13.042969 -0.253906 C 14.128906 -1.46875 14.960938 -2.8125 15.921875 -4.09375 C 16.816406 -5.242188 17.902344 -6.328125 18.796875 -7.480469 L 22.25 -11.957031 L 24.230469 -14.578125 C 24.550781 -14.960938 24.742188 -15.28125 24.488281 -15.792969 Z M 8.632812 -15.089844 C 8.695312 -15.21875 8.695312 -15.28125 8.695312 -15.28125 C 9.65625 -17.328125 10.359375 -19.5 11.699219 -21.484375 L 12.851562 -23.015625 C 13.105469 -23.335938 13.554688 -23.914062 14.003906 -24.039062 C 14.960938 -24.230469 15.21875 -22.570312 15.152344 -21.929688 L 14.898438 -20.585938 C 14.832031 -20.203125 14.960938 -19.949219 14.898438 -19.628906 C 14.769531 -19.246094 14.449219 -19.054688 14.257812 -18.734375 L 13.171875 -17.328125 C 11.699219 -15.601562 9.847656 -14.128906 7.800781 -13.042969 C 8.121094 -13.746094 8.3125 -14.449219 8.632812 -15.089844 Z M 8.632812 -15.089844 "/></g></g></g><g fill="#222222" fill-opacity="1"><g transform="translate(228.296485, 200.618965)"><g><path d="M 26.214844 -15.535156 C 25.832031 -17.199219 24.296875 -14.960938 23.976562 -14.578125 L 20.460938 -9.847656 L 17.007812 -5.308594 L 15.152344 -2.941406 C 14.960938 -2.683594 13.554688 -0.894531 13.683594 -0.894531 C 13.808594 -1.023438 14.003906 -1.023438 14.195312 -1.214844 C 13.234375 -0.191406 9.71875 3.003906 9.078125 2.238281 C 8.566406 1.597656 9.972656 -1.085938 10.167969 -1.726562 C 10.871094 -3.582031 11.507812 -5.5 12.277344 -7.289062 C 13.105469 -9.144531 14.066406 -10.996094 14.832031 -12.851562 C 15.601562 -14.832031 14.449219 -15.535156 12.59375 -15.984375 C 11.765625 -16.175781 10.742188 -16.175781 9.78125 -16.304688 C 9.78125 -16.238281 9.847656 -16.238281 9.847656 -16.238281 C 10.675781 -16.113281 11.890625 -16.046875 12.914062 -15.730469 C 11.382812 -16.175781 9.460938 -15.984375 8.246094 -16.304688 C 7.417969 -16.496094 6.90625 -16.496094 7.03125 -17.453125 C 7.160156 -18.734375 8.503906 -20.078125 8.953125 -21.292969 C 8.953125 -21.226562 8.503906 -20.078125 8.566406 -20.078125 C 8.886719 -19.949219 9.398438 -21.738281 9.398438 -21.996094 C 9.335938 -22.3125 8.566406 -23.273438 8.503906 -22.890625 L 8.632812 -22.699219 C 5.5625 -24.808594 1.917969 -20.460938 2.558594 -17.328125 C 2.683594 -16.878906 2.941406 -16.625 3.132812 -16.113281 C 3.261719 -15.730469 3.132812 -15.28125 3.515625 -14.769531 C 4.859375 -13.105469 7.289062 -13.042969 9.207031 -13.425781 C 8.886719 -12.980469 5.5 -5.816406 5.691406 -5.753906 L 5.242188 -4.15625 C 5.179688 -4.21875 5.433594 -4.730469 5.308594 -4.730469 C 4.859375 -4.796875 3.964844 -1.085938 3.898438 -0.765625 C 3.644531 0.765625 3.707031 2.109375 4.347656 3.515625 C 4.730469 4.410156 5.179688 5.179688 6.011719 5.691406 C 6.777344 6.203125 7.738281 6.457031 8.632812 6.265625 C 8.953125 6.136719 10.167969 5.308594 9.847656 5.371094 L 10.292969 5.179688 C 10.230469 5.242188 10.167969 5.308594 10.167969 5.371094 C 10.359375 5.433594 13.300781 3.070312 13.683594 2.8125 C 15.730469 1.085938 17.390625 -1.023438 18.925781 -3.132812 C 20.460938 -5.308594 22.058594 -7.480469 23.527344 -9.65625 C 24.230469 -10.675781 24.871094 -11.699219 25.382812 -12.789062 C 25.765625 -13.554688 26.40625 -14.640625 26.214844 -15.535156 Z M 7.097656 -7.863281 C 7.542969 -9.015625 8.054688 -10.101562 8.632812 -11.1875 C 8.757812 -11.382812 9.65625 -13.683594 10.101562 -13.808594 C 9.78125 -13.617188 8.441406 -10.484375 8.121094 -9.910156 L 6.90625 -7.097656 C 6.265625 -5.5625 5.5625 -3.964844 5.113281 -2.300781 C 5.5625 -4.21875 6.328125 -6.074219 7.097656 -7.863281 Z M 5.5625 4.410156 C 5.945312 4.921875 6.457031 5.433594 7.160156 5.691406 C 6.585938 5.5 6.074219 5.179688 5.691406 4.796875 C 5.753906 4.796875 5.753906 4.859375 5.753906 4.921875 C 5.371094 4.410156 4.859375 3.324219 4.796875 3.132812 C 4.601562 2.367188 4.539062 1.46875 4.601562 0.703125 C 4.601562 0.0625 4.667969 -0.449219 4.796875 -1.023438 L 4.796875 -0.960938 C 4.667969 -0.128906 4.601562 0.703125 4.667969 1.597656 L 4.667969 1.917969 C 4.601562 1.855469 4.601562 1.789062 4.601562 1.789062 C 4.601562 1.789062 4.601562 1.855469 4.667969 1.980469 L 4.667969 2.046875 L 4.921875 3.390625 L 4.730469 2.558594 C 4.859375 2.941406 5.179688 3.644531 5.5 4.347656 L 5.433594 4.285156 C 5.433594 4.347656 5.5 4.410156 5.5625 4.476562 Z M 7.351562 -16.6875 C 7.671875 -16.433594 8.246094 -16.367188 8.824219 -16.304688 C 8.3125 -16.367188 7.863281 -16.496094 7.542969 -16.75 C 7.542969 -16.75 7.160156 -17.070312 7.097656 -17.199219 C 7.097656 -17.070312 7.226562 -16.75 7.351562 -16.6875 Z M 14.066406 -11.699219 L 12.722656 -8.886719 L 14.066406 -11.765625 Z M 4.859375 -1.214844 C 4.859375 -1.152344 4.796875 -1.085938 4.796875 -1.023438 L 4.796875 -1.085938 C 4.796875 -1.152344 4.859375 -1.152344 4.859375 -1.214844 Z M 14.128906 -11.890625 L 14.128906 -11.828125 L 14.066406 -11.828125 Z M 14.128906 -11.890625 L 14.128906 -11.828125 L 14.066406 -11.828125 Z M 4.921875 -2.046875 C 4.921875 -2.109375 4.988281 -2.175781 4.988281 -2.300781 C 4.988281 -2.175781 4.921875 -2.109375 4.921875 -2.046875 Z M 5.179688 3.835938 C 5.179688 3.835938 5.242188 3.898438 5.242188 3.964844 C 5.242188 3.898438 5.179688 3.898438 5.179688 3.835938 Z M 7.160156 -17.328125 C 7.097656 -17.328125 7.097656 -17.261719 7.097656 -17.261719 Z M 7.160156 -17.328125 "/></g></g></g><g fill="#222222" fill-opacity="1"><g transform="translate(249.843397, 200.618965)"><g><path d="M 39.769531 -44.5625 C 39.449219 -47.058594 34.71875 -47.25 33.4375 -45.777344 C 33.246094 -45.585938 32.992188 -45.011719 32.609375 -44.691406 C 31.96875 -44.117188 32.222656 -44.371094 31.457031 -44.117188 C 29.667969 -43.605469 27.875 -43.09375 26.085938 -42.519531 C 24.808594 -42.136719 23.335938 -41.878906 22.058594 -41.304688 C 21.292969 -40.984375 20.84375 -40.601562 20.011719 -40.34375 C 17.261719 -39.578125 14.320312 -39 11.957031 -37.785156 C 10.359375 -36.957031 8.375 -36.378906 8.246094 -34.144531 C 8.246094 -33.503906 8.503906 -32.992188 8.824219 -32.417969 C 9.207031 -31.648438 9.71875 -31.394531 10.292969 -30.945312 L 11.636719 -29.730469 C 12.46875 -28.964844 13.875 -27.875 15.023438 -27.941406 C 15.089844 -27.941406 16.175781 -28.324219 16.238281 -28.453125 C 16.816406 -29.15625 14.832031 -30.625 14.449219 -31.136719 C 13.746094 -32.03125 12.722656 -33.4375 13.042969 -34.652344 C 13.746094 -37.019531 18.285156 -37.851562 20.332031 -38.425781 C 21.929688 -38.875 23.464844 -39.707031 25.0625 -40.152344 C 26.855469 -40.664062 28.578125 -40.921875 30.371094 -41.625 C 26.46875 -35.421875 24.039062 -28.261719 21.546875 -21.484375 C 18.925781 -14.386719 16.433594 -7.160156 13.042969 -0.382812 C 12.277344 1.214844 10.292969 6.074219 7.800781 4.730469 C 6.523438 4.09375 5.882812 2.300781 5.433594 1.085938 C 4.730469 -0.640625 4.15625 -2.492188 3.644531 -4.285156 C 2.683594 -7.800781 2.300781 -11.316406 1.855469 -14.960938 C 1.726562 -15.601562 1.46875 -17.582031 0.449219 -17.261719 C -0.449219 -16.945312 0.253906 -11.957031 0.191406 -11.125 C 0 -7.542969 0.253906 -3.898438 1.152344 -0.382812 C 1.980469 2.941406 3.644531 6.328125 6.777344 8.054688 C 8.183594 8.824219 9.910156 9.335938 11.507812 9.335938 C 13.171875 9.335938 14.128906 8.375 15.023438 7.160156 C 18.988281 2.046875 21.226562 -4.09375 23.65625 -10.039062 C 24.359375 -11.699219 24.742188 -13.300781 25.191406 -14.898438 C 25.640625 -16.6875 26.597656 -18.414062 27.300781 -20.140625 C 28.644531 -23.464844 29.988281 -26.789062 31.519531 -30.113281 L 34.207031 -35.550781 C 34.847656 -36.699219 34.910156 -37.722656 35.675781 -38.746094 C 36.828125 -40.152344 37.980469 -41.496094 39.128906 -42.964844 C 39.449219 -43.414062 39.832031 -43.925781 39.769531 -44.5625 Z M 26.535156 -23.144531 C 25.320312 -20.394531 23.976562 -18.09375 22.890625 -15.28125 L 26.917969 -25.832031 C 27.492188 -27.429688 28.261719 -28.898438 29.027344 -30.433594 C 28.070312 -28.195312 27.558594 -25.320312 26.535156 -23.144531 Z M 26.535156 -23.144531 "/></g></g></g><g fill="#222222" fill-opacity="1"><g transform="translate(279.574298, 200.618965)"><g><path d="M 38.363281 -47.1875 C 37.46875 -47.953125 36.378906 -48.464844 35.230469 -48.914062 C 32.351562 -50.128906 29.601562 -50.636719 26.535156 -49.871094 C 23.59375 -49.105469 20.78125 -47.570312 18.542969 -45.523438 C 17.007812 -44.117188 14.320312 -41.75 14.003906 -39.511719 L 14.449219 -40.152344 C 13.808594 -38.9375 13.363281 -37.722656 13.105469 -36.570312 C 13.042969 -36.570312 13.234375 -37.59375 13.300781 -37.59375 C 12.277344 -37.59375 12.59375 -33.695312 12.660156 -33.121094 C 12.789062 -30.5 13.492188 -27.8125 14.515625 -25.382812 C 15.921875 -22.058594 17.453125 -18.796875 18.734375 -15.472656 L 19.882812 -12.59375 C 20.011719 -12.148438 20.203125 -11.636719 20.394531 -11.1875 C 20.460938 -11.1875 20.714844 -10.675781 20.714844 -10.742188 C 20.78125 -10.230469 20.90625 -9.847656 21.035156 -9.398438 C 20.90625 -9.71875 20.652344 -10.167969 20.652344 -10.421875 C 20.523438 -9.972656 20.90625 -9.398438 21.035156 -9.078125 C 21.164062 -8.441406 21.226562 -7.863281 21.226562 -7.226562 C 21.097656 -5.5625 20.523438 -3.964844 19.691406 -2.558594 C 18.03125 0.191406 15.28125 2.429688 12.210938 3.390625 C 9.972656 4.027344 7.226562 4.027344 6.203125 1.597656 C 5.308594 -0.382812 5.691406 -2.8125 6.136719 -4.859375 C 6.394531 -6.011719 6.714844 -7.160156 7.226562 -8.246094 C 7.609375 -9.269531 9.65625 -12.019531 9.078125 -13.042969 C 7.671875 -15.535156 2.941406 -9.269531 2.300781 -8.246094 C -0.382812 -3.898438 -1.664062 3.195312 3.835938 6.011719 C 7.671875 7.929688 12.722656 7.609375 16.558594 6.074219 C 17.902344 5.5625 23.722656 3.132812 23.65625 1.214844 L 22.378906 2.109375 C 26.789062 -1.726562 28.578125 -6.394531 26.855469 -12.148438 C 26.023438 -14.832031 24.488281 -17.007812 23.015625 -19.375 C 21.929688 -21.292969 21.609375 -23.144531 20.714844 -25.128906 C 21.929688 -22.699219 23.402344 -20.332031 24.679688 -17.902344 C 22.058594 -23.914062 17.007812 -31.074219 20.394531 -37.785156 C 21.929688 -40.792969 24.679688 -43.285156 27.683594 -44.757812 C 29.410156 -45.585938 31.457031 -46.289062 33.4375 -46.226562 C 35.804688 -46.035156 35.292969 -44.5 35.292969 -42.902344 C 35.421875 -43.859375 35.996094 -44.882812 35.039062 -45.84375 C 34.144531 -46.609375 32.671875 -46.355469 31.585938 -46.164062 C 29.089844 -45.714844 26.789062 -44.691406 24.808594 -43.222656 C 26.214844 -44.308594 27.8125 -45.203125 29.476562 -45.777344 C 30.945312 -46.289062 33.121094 -46.929688 34.589844 -46.289062 C 38.234375 -44.628906 33.566406 -37.660156 31.839844 -35.292969 C 32.160156 -35.867188 32.671875 -36.957031 32.800781 -37.082031 C 31.90625 -37.148438 30.113281 -32.671875 29.667969 -32.417969 C 28.132812 -30.816406 29.988281 -30.625 31.265625 -31.394531 C 32.671875 -32.222656 33.824219 -33.566406 34.910156 -34.652344 C 36.378906 -36.1875 37.722656 -37.785156 38.875 -39.511719 C 39.640625 -40.664062 41.046875 -42.519531 40.28125 -43.925781 C 39.769531 -45.140625 39.449219 -46.289062 38.363281 -47.1875 Z M 2.621094 4.601562 C -0.703125 0.449219 0.832031 -5.050781 3.835938 -9.144531 C 1.214844 -5.371094 0.128906 1.46875 2.621094 4.601562 Z M 19.117188 -32.609375 C 19.179688 -32.289062 19.117188 -31.96875 19.117188 -31.714844 Z M 19.117188 -32.609375 "/></g></g></g></svg>